# xmcd
#
# Track frame offsets: 
#        150
#        15047
#        27541
#        39408
#        52408
#        66523
#        79182
#        95105
#        109139
#        122990
#        137054
#        149226
#
# Disc length: 2217 seconds
#
# Revision: 0
# Processed by: cddbd v1.5.2PL0 Copyright (c) Steve Scherf et al.
# Submitted via: ExactAudioCopy v0.99pb3
#
DISCID=b808a70c
DTITLE=Ronny - Mit dem Wind muß ich weiterzieh'n
DYEAR=1900
DGENRE=
TTITLE0=Wabash Cannon Ball
TTITLE1=Hinter der verschlossenen Tür
TTITLE2=Mary, Oh Mary
TTITLE3=Mit dem Wind muß ich weiterzieh'n
TTITLE4=Billy Joe
TTITLE5=Träumendes Mädchen
TTITLE6=Keiner kann den Kreis durchbrechen
TTITLE7=San Antonio Rose
TTITLE8=Nur noch einmal nach Haus
TTITLE9=Mir geht's gut
TTITLE10=Wenn der Schnee liegt auf den Rosen
TTITLE11=Adios My Love
EXTD=
EXTT0=
EXTT1=
EXTT2=
EXTT3=
EXTT4=
EXTT5=
EXTT6=
EXTT7=
EXTT8=
EXTT9=
EXTT10=
EXTT11=
PLAYORDER=
